<?xml version="1.0" encoding="utf-8"?>
<svg width="27" height="16" version="1.1" fill="#000000" xmlns="http://www.w3.org/2000/svg">
  <defs/>
  <title>vk</title>
  <g>
    <title>Layer 1</title>
    <path stroke="null" id="svg_1" d="m16.28087,7.65012c-0.49164,-0.188 -0.49164,-0.906 -0.52212,-1.406c-0.12291,-1.781 0.49164,-4.5 -0.24582,-5.656c-0.52212,-0.688 -3.04227,-0.625 -4.57816,-0.531c-0.43068,0.063 -0.9528,0.156 -1.32153,0.344s-0.73746,0.5 -0.73746,0.781c0,0.406 0.92232,0.344 1.25958,0.875c0.36873,0.563 0.36873,1.781 0.36873,2.781c0,1.156 -0.18486,2.688 -0.64503,2.75c-0.70698,0.031 -1.10619,-0.688 -1.47492,-1.219c-0.73746,-1.031 -1.47492,-2.313 -2.02851,-3.563c-0.2763,-0.656 -0.43068,-1.375 -0.82989,-1.656c-0.61455,-0.438 -1.72074,-0.469 -2.79645,-0.438c-0.98328,0.031 -2.39724,-0.094 -2.67354,0.5c-0.21534,0.656 0.24582,1.281 0.49164,1.813c1.25958,2.781 2.6116,5.219 4.27138,7.531c1.53687,2.156 2.98033,3.875 5.80726,4.781c0.79941,0.25 4.30186,0.969 5.00884,0c0.24582,-0.375 0.18486,-1.219 0.30777,-1.844s0.2763,-1.25 0.86037,-1.281c0.49164,-0.031 0.76794,0.406 1.07571,0.719c0.33825,0.344 0.61455,0.625 0.86037,0.938c0.58407,0.594 1.19862,1.406 1.93608,1.719c1.01376,0.438 2.58111,0.313 4.05604,0.25c1.19862,-0.031 2.05899,-0.281 2.15142,-1c0.06195,-0.563 -0.55359,-1.375 -0.92232,-1.844c-0.92232,-1.156 -1.35201,-1.5 -2.39724,-2.563c-0.46116,-0.469 -1.04523,-0.969 -1.04523,-1.531c-0.03048,-0.344 0.24582,-0.656 0.49164,-1c1.07571,-1.625 2.15142,-2.781 3.1347,-4.469c0.2763,-0.5 0.92232,-1.656 0.6765,-2.219c-0.2763,-0.625 -1.81317,-0.438 -2.76597,-0.438c-1.2291,0 -2.82694,-0.094 -3.1347,0.156c-0.58407,0.406 -0.82989,1.063 -1.10619,1.688c-0.61455,1.438 -1.44444,2.906 -2.30481,4c-0.30777,0.375 -0.89085,1.156 -1.2291,1.031l0.00098,0.001z" style="fill: rgb(254, 190, 113);"/>
    <path id="svg_2" d="m15.06028,10.69503" opacity="NaN" stroke="#000" style="fill: rgb(254, 190, 113);"/>
    <path id="svg_4" d="m9.5,7.65714" opacity="NaN" style="fill: rgb(254, 190, 113);"/>
  </g>
</svg>